HIERARCHY
ROOT Hips
{
  OFFSET -102.467 93.6631 130.069
  CHANNELS 6 Xposition Yposition Zposition Zrotation Xrotation Yrotation
  JOINT LeftUpLeg
  {
    OFFSET 8.64259 1.95398 -2.38835
    CHANNELS 3 Zrotation Xrotation Yrotation
    JOINT LeftLeg
    {
      OFFSET 43.7702 0 0
      CHANNELS 3 Zrotation Xrotation Yrotation
      JOINT LeftFoot
      {
        OFFSET 40.6238 0 0
        CHANNELS 3 Zrotation Xrotation Yrotation
        JOINT LeftToeBase
        {
          OFFSET 12.7242 0 0
          CHANNELS 3 Zrotation Xrotation Yrotation
          End Site
          {
            OFFSET 0 0 0
          }
        }
      }
    }
  }
  JOINT RightUpLeg
  {
    OFFSET -8.2249 1.95398 -2.59336
    CHANNELS 3 Zrotation Xrotation Yrotation
    JOINT RightLeg
    {
      OFFSET 43.5653 0 0
      CHANNELS 3 Zrotation Xrotation Yrotation
      JOINT RightFoot
      {
        OFFSET 40.6238 0 0
        CHANNELS 3 Zrotation Xrotation Yrotation
        JOINT RightToeBase
        {
          OFFSET 12.7242 0 0
          CHANNELS 3 Zrotation Xrotation Yrotation
          End Site
          {
            OFFSET 0 0 0
          }
        }
      }
    }
  }
  JOINT Spine
  {
    OFFSET 0.165834 0.87714 6.61349
    CHANNELS 3 Zrotation Xrotation Yrotation
    JOINT Spine1
    {
      OFFSET 7.38963 1.71661e-005 0
      CHANNELS 3 Zrotation Xrotation Yrotation
      JOINT Spine2
      {
        OFFSET 11.9445 1.14441e-005 0
        CHANNELS 3 Zrotation Xrotation Yrotation
        JOINT Spine3
        {
          OFFSET 14.7254 4.19617e-005 0
          CHANNELS 3 Zrotation Xrotation Yrotation
          JOINT Spine4
          {
            OFFSET 10.9679 0 0
            CHANNELS 3 Zrotation Xrotation Yrotation
            JOINT RightShoulder
            {
              OFFSET 2.46616 -1.6653 3.69651
              CHANNELS 3 Zrotation Xrotation Yrotation
              JOINT RightArm
              {
                OFFSET 13.0012 0 0
                CHANNELS 3 Zrotation Xrotation Yrotation
                JOINT RightForeArm
                {
                  OFFSET 28.7848 1.52588e-005 0
                  CHANNELS 3 Zrotation Xrotation Yrotation
                  JOINT RightHand
                  {
                    OFFSET 26.5688 1.52588e-005 0
                    CHANNELS 3 Zrotation Xrotation Yrotation
                    End Site
                    {
                      OFFSET 0 0 0
                    }
                  }
                }
              }
            }
            JOINT LeftShoulder
            {
              OFFSET 2.38034 -1.29275 -3.7523
              CHANNELS 3 Zrotation Xrotation Yrotation
              JOINT LeftArm
              {
                OFFSET 16.3182 6.10351e-005 0
                CHANNELS 3 Zrotation Xrotation Yrotation
                JOINT LeftForeArm
                {
                  OFFSET 27.0901 0 0
                  CHANNELS 3 Zrotation Xrotation Yrotation
                  JOINT LeftHand
                  {
                    OFFSET 24.5451 1.52588e-005 0
                    CHANNELS 3 Zrotation Xrotation Yrotation
                    End Site
                    {
                      OFFSET 0 0 0
                    }
                  }
                }
              }
            }
            JOINT Neck
            {
              OFFSET 5.0226 -0.0266342 0
              CHANNELS 3 Zrotation Xrotation Yrotation
              JOINT Head
              {
                OFFSET 6.69363 2.86102e-005 0
                CHANNELS 3 Zrotation Xrotation Yrotation
                End Site
                {
                  OFFSET 0 0 0
                }
              }
            }
          }
        }
      }
    }
  }
}
MOTION
Frames:	10
Frame Time:	0.0416667
-141.346 98.9144 -18.9187 148.799 -86.7 148.947 -175.945 -1.17015 89.109 -9.90902 20.9432 2.49772 58.0924 4.00743 12.4619 37.1674 -0.914204 0.440993 175.57 2.88023 88.8113 -18.3458 -2.0246 -0.579086 63.8687 5.09516 11.212 29.0062 0.188394 1.46967 0.0721414 7.01206 -90.1929 12.8497 0.0509317 -0.391655 1.17864 0.0336447 -0.393533 -21.3561 0.166288 -0.358244 -1.34345 0.166286 -0.358244 100.932 -54.6568 -83.9889 29.3271 -7.29119 -6.73966 -1.44529 -6.80751 -13.7396 -14.1829 -0.936524 2.54285 -84.4918 -51.3034 86.9258 -28.8618 7.58767 -17.4425 -1.38906 27.1236 -1.01522 -0.383151 -0.0975971 -4.77675 1.89957 0.965332 -4.97092 -20.9499 0.960907 5.21124 
-141.386 98.9232 -18.8935 149.551 -86.5571 149.76 -175.846 -1.64379 89.2559 -9.36452 21.1662 2.5247 58.2151 4.08762 12.1553 36.7138 -0.756907 1.21677 175.607 2.71051 88.8011 -18.3971 0.632193 -0.785905 64.2484 6.21737 14.0947 26.0178 1.09258 3.23416 0.0498967 7.01303 -90.2254 12.8476 -0.00879213 -0.449545 1.17654 -0.0285638 -0.448737 -21.358 0.126718 -0.4314 -1.34538 0.12672 -0.431414 100.63 -54.452 -84.4397 29.304 -7.24688 -6.30324 -1.96699 -8.35354 -13.9398 -13.5878 -0.921454 2.76411 -84.3523 -52.1244 87.2273 -28.1514 7.70129 -17.3059 -1.68978 27.4888 -0.873968 0.803566 -0.129587 -5.81665 1.77361 1.09813 -4.11853 -21.1462 1.05002 4.51759 
-141.363 98.9069 -18.845 147.612 -86.6266 147.665 -175.95 -1.89183 89.0545 -8.73457 21.2271 2.49919 58.1007 4.17388 12.3412 36.4948 -0.761425 1.01226 175.442 2.9208 88.5146 -18.661 1.84567 -0.766859 64.4961 6.8614 15.6321 24.5519 1.42465 3.50641 0.0261116 6.98573 -90.2197 12.9021 -0.0534148 -0.432873 1.2311 -0.0724148 -0.430111 -21.3035 0.0791435 -0.428911 -1.29085 0.0791493 -0.428915 100.492 -54.3069 -84.6486 29.4142 -7.35869 -6.15213 -1.85868 -8.45058 -13.7327 -14.1623 -0.948454 2.65227 -84.2736 -52.4198 87.3761 -27.9586 7.53294 -17.1778 -1.66307 27.8685 -0.835046 0.681568 -0.145833 -6.45634 1.37098 1.21961 -4.02782 -20.7812 1.13564 4.65312 
-141.317 98.8986 -18.8332 147.56 -86.8523 147.456 -176.128 -1.71567 88.8227 -8.74928 20.9969 2.50209 58.0461 4.11807 12.3624 36.5647 -0.769459 1.00833 175.36 3.23295 88.3036 -18.8323 1.52669 -0.727647 64.5345 6.80195 15.45 24.6066 1.44236 3.74688 0.0454425 6.97484 -90.1995 12.9241 -0.00539608 -0.398264 1.25305 -0.0229194 -0.397651 -21.2817 0.11455 -0.381476 -1.269 0.114544 -0.381482 100.583 -54.4063 -84.511 29.149 -7.92491 -6.00896 -1.71315 -8.04724 -14.1377 -14.1016 -0.978488 2.94352 -84.3424 -52.3855 87.2707 -27.8911 7.65458 -17.2727 -1.57489 28.3266 -1.08385 0.366438 -0.129628 -6.00686 1.90349 1.06071 -5.24671 -21.4325 0.913359 6.277 
-141.326 98.9199 -18.8595 149.789 -86.8032 149.727 -176.071 -1.78922 88.871 -8.74798 20.7939 2.48996 58.0408 4.08576 12.2236 36.5442 -0.76033 1.05961 175.449 3.11919 88.3853 -18.7977 1.56083 -0.815495 64.584 6.77543 15.4992 24.5376 1.4579 3.76209 0.0558363 6.9873 -90.2138 12.8991 0.00841683 -0.428433 1.22807 -0.0104462 -0.428389 -21.3066 0.136787 -0.406095 -1.29392 0.136786 -0.406095 100.683 -54.3393 -84.3646 29.1649 -7.8246 -6.17608 -1.76152 -8.29392 -13.7965 -13.933 -0.91362 2.49172 -84.2796 -52.4645 87.3718 -27.7662 7.83399 -17.4033 -1.64461 28.2278 -1.16557 0.041822 -0.112382 -5.40653 1.98172 1.07474 -5.51334 -21.5123 0.905007 6.68481 
-141.356 98.9133 -18.883 148.365 -86.1068 148.89 -175.579 -1.94079 89.6164 -9.44703 21.8006 2.56696 58.3201 4.25566 12.359 36.7636 -0.778627 1.09838 175.579 2.17779 89.0203 -18.1977 2.12803 -0.762785 64.2683 6.74082 15.3118 24.5357 1.48989 4.02372 0.0159336 7.04375 -90.2826 12.7856 -0.103516 -0.552392 1.1146 -0.127727 -0.547312 -21.4196 0.0672836 -0.557965 -1.40698 0.0672799 -0.557975 100.649 -54.383 -84.4146 29.159 -7.71976 -6.0642 -1.88298 -8.36617 -14.0585 -13.5672 -0.939334 2.93255 -84.321 -52.5823 87.324 -27.6172 7.8687 -17.2638 -1.6641 25.4883 -1.35595 0.0244299 -0.0879471 -4.25128 1.98001 1.10322 -4.95257 -21.5549 0.961424 5.91459 
-141.355 98.9201 -18.8828 148.894 -86.1636 149.371 -175.608 -1.86875 89.554 -9.55016 21.6677 2.55663 58.3699 4.25626 12.3253 36.6478 -0.788877 0.931723 175.583 2.2108 88.9888 -18.1675 2.01764 -0.777258 64.2685 6.69242 15.2485 24.6315 1.45859 3.92165 0.013394 7.04122 -90.28 12.7909 -0.107305 -0.546793 1.11983 -0.131271 -0.541542 -21.4144 0.0619816 -0.553764 -1.40177 0.0619765 -0.553772 100.627 -54.3243 -84.4481 29.2475 -7.82752 -6.05656 -1.79006 -8.05609 -14.0825 -13.759 -0.919501 2.64329 -84.2466 -52.4145 87.4155 -27.7835 7.98342 -17.3146 -1.63091 25.9447 -1.41895 0.0802287 -0.09121 -4.31087 1.97711 1.18098 -5.15219 -21.6784 0.999603 6.32445 
-141.354 98.9172 -18.8964 150.142 -86.1952 150.564 -175.597 -1.76582 89.517 -9.76348 21.2817 2.51636 58.5374 4.29047 12.1353 36.4726 -0.819786 0.557244 175.582 2.30566 88.9235 -18.3671 2.07969 -0.820776 64.3773 6.8288 15.5751 24.6106 1.42406 3.60433 0.0218145 7.04272 -90.2847 12.7878 -0.0928548 -0.558007 1.11678 -0.117329 -0.553384 -21.4174 0.0791376 -0.560117 -1.40477 0.0791408 -0.56012 100.596 -54.1876 -84.4968 29.3837 -7.85903 -6.07752 -1.75626 -7.86119 -14.1126 -13.6923 -0.902066 2.5317 -84.2837 -52.7777 87.4006 -27.3819 8.07724 -17.4222 -1.75642 25.9844 -1.38291 0.181224 -0.0915365 -4.43526 1.95353 1.25147 -4.88851 -21.6236 1.05604 6.15848 
-141.352 98.9324 -18.9178 150.404 -86.2254 150.936 -175.519 -1.83326 89.6287 -9.55001 21.4873 2.50416 58.4174 4.24933 12.1905 36.5934 -0.814588 0.69696 175.676 2.26433 89.0845 -18.2009 1.88119 -0.834663 64.2295 6.67596 15.183 24.7165 1.40972 3.66013 0.023422 7.04054 -90.2965 12.7922 -0.0953446 -0.581368 1.1211 -0.120832 -0.576612 -21.413 0.0837853 -0.58314 -1.40038 0.0837891 -0.583139 100.523 -54.1758 -84.6056 29.4354 -7.98796 -6.03462 -1.6178 -7.39183 -14.3098 -13.7404 -0.954518 2.95762 -84.3384 -52.5817 87.2983 -27.6362 8.01895 -17.4031 -1.61671 26.472 -1.48361 0.0099301 -0.0913299 -4.36678 1.70813 1.1822 -4.22069 -21.2246 1.06653 5.02977 
-141.298 98.9112 -18.95 152.125 -86.561 152.346 -175.756 -1.74848 89.2345 -9.2526 20.9371 2.43953 58.2804 4.20788 12.1957 36.4843 -0.83306 0.468 175.464 2.78777 88.6397 -18.6209 1.6531 -0.74809 64.5201 6.64577 15.3527 24.2741 1.52015 3.84259 0.0395045 7.01236 -90.2724 12.8487 -0.0519868 -0.538408 1.17766 -0.0756403 -0.53561 -21.3566 0.11222 -0.529149 -1.34397 0.112223 -0.529149 100.487 -54.0213 -84.6646 29.5167 -8.23469 -6.12399 -1.24502 -6.68788 -14.126 -14.7943 -0.981161 2.56727 -84.3263 -52.7259 87.3323 -27.6622 7.8069 -17.5062 -1.38624 27.7515 -1.58709 -1.21496 -0.0906863 -4.49892 1.85751 1.2575 -4.30949 -21.4288 1.08607 5.45383 
